# xmcd CD database file
#
# Track frame offsets:
#	150
#	23890
#	50697
#	67400
#	85195
#	115710
#	124820
#	136177
#	156377
#	186637
#	203487
#	217350
#	248547
#
# Disc length: 4440 seconds
#
# Revision: 3
# Processed by: cddbd v1.5.2PL0 Copyright (c) Steve Scherf et al.
# Submitted via: CDex 1.70beta2
#
DISCID=c611560d
DTITLE=Various Artist - Blue Note Plays Bacharach
DYEAR=2004
DGENRE=Jazz
TTITLE0=Jazz Crusaders - Promises, Pormises
TTITLE1=Stanley Turrentine - Walk On By
TTITLE2=Lou Rawls - Any Day Now
TTITLE3=Richard 'Groove' Holmes - Do You Know The Way To San Jose
TTITLE4=Grant Green - I'll Never Fall In Love Again
TTITLE5=Nancy Wilson - Wives And Lovers
TTITLE6=Three Sounds - The Look Of Love
TTITLE7=Stanley Jordan - One Less Bell To Answer
TTITLE8=Stanley Turrentine - What The World Needs Now Is Love
TTITLE9=Earl Klugh - The April Fools
TTITLE10=Nancy Wilson - Alfie
TTITLE11=Ernie Watts - Knowing When To Leave
TTITLE12=Datatrack
EXTD=YEAR: 2004
EXTT0=
EXTT1=
EXTT2=
EXTT3=
EXTT4=
EXTT5=
EXTT6=
EXTT7=
EXTT8=
EXTT9=
EXTT10=
EXTT11=
EXTT12=
PLAYORDER=
